{
  "asset": {
    "generator": "glTF-Transform v4.1.2",
    "version": "2.0",
    "extras": {
      "author": "knight_of_the_flame (https://sketchfab.com/knight_of_the_flame)",
      "license": "CC-BY-4.0 (http://creativecommons.org/licenses/by/4.0/)",
      "source": "https://sketchfab.com/3d-models/agility-up-1765981cb0e94288aea55220360e98a0",
      "title": "Agility Up"
    }
  },
  "accessors": [
    {
      "type": "SCALAR",
      "componentType": 5123,
      "count": 32640,
      "bufferView": 0,
      "byteOffset": 0
    },
    {
      "type": "SCALAR",
      "componentType": 5123,
      "count": 1824,
      "bufferView": 0,
      "byteOffset": 65280
    },
    {
      "type": "VEC3",
      "componentType": 5126,
      "count": 6076,
      "bufferView": 1,
      "byteOffset": 0
    },
    {
      "type": "VEC3",
      "componentType": 5126,
      "count": 6076,
      "max": [
        0.98470538854599,
        1,
        0.9847053289413452
      ],
      "min": [
        -0.9847054481506348,
        -1,
        -0.9847056269645691
      ],
      "bufferView": 1,
      "byteOffset": 12
    },
    {
      "type": "VEC4",
      "componentType": 5126,
      "count": 6076,
      "bufferView": 1,
      "byteOffset": 24
    },
    {
      "type": "VEC2",
      "componentType": 5126,
      "count": 6076,
      "bufferView": 1,
      "byteOffset": 40
    },
    {
      "type": "VEC3",
      "componentType": 5126,
      "count": 386,
      "bufferView": 2,
      "byteOffset": 0
    },
    {
      "type": "VEC3",
      "componentType": 5126,
      "count": 386,
      "max": [
        2.2433652877807617,
        2.2090542316436768,
        0.4098268449306488
      ],
      "min": [
        -2.24336576461792,
        -2.2090537548065186,
        -0.4098268449306488
      ],
      "bufferView": 2,
      "byteOffset": 12
    },
    {
      "type": "VEC4",
      "componentType": 5126,
      "count": 386,
      "bufferView": 2,
      "byteOffset": 24
    },
    {
      "type": "VEC2",
      "componentType": 5126,
      "count": 386,
      "bufferView": 2,
      "byteOffset": 40
    },
    {
      "type": "SCALAR",
      "componentType": 5126,
      "count": 121,
      "max": [
        3.9583332538604736
      ],
      "min": [
        0.0416666679084301
      ],
      "bufferView": 3,
      "byteOffset": 0
    },
    {
      "type": "VEC3",
      "componentType": 5126,
      "count": 121,
      "bufferView": 3,
      "byteOffset": 484
    },
    {
      "type": "SCALAR",
      "componentType": 5126,
      "count": 4,
      "max": [
        3.9583332538604736
      ],
      "min": [
        0.0416666679084301
      ],
      "bufferView": 3,
      "byteOffset": 1936
    },
    {
      "type": "VEC4",
      "componentType": 5126,
      "count": 4,
      "bufferView": 3,
      "byteOffset": 1952
    }
  ],
  "bufferViews": [
    {
      "buffer": 0,
      "byteOffset": 0,
      "byteLength": 68928,
      "target": 34963
    },
    {
      "buffer": 0,
      "byteOffset": 68928,
      "byteLength": 291648,
      "byteStride": 48,
      "target": 34962
    },
    {
      "buffer": 0,
      "byteOffset": 360576,
      "byteLength": 18528,
      "byteStride": 48,
      "target": 34962
    },
    {
      "buffer": 0,
      "byteOffset": 379104,
      "byteLength": 2016
    }
  ],
  "samplers": [
    {
      "magFilter": 9729,
      "minFilter": 9987,
      "wrapS": 10497,
      "wrapT": 10497
    }
  ],
  "textures": [
    {
      "source": 0,
      "sampler": 0
    },
    {
      "source": 1,
      "sampler": 0
    },
    {
      "source": 2,
      "sampler": 0
    },
    {
      "source": 3,
      "sampler": 0
    }
  ],
  "images": [
    {
      "mimeType": "image/png",
      "uri": "textures/AU_Base_MAT_baseColor.png"
    },
    {
      "mimeType": "image/png",
      "uri": "textures/AU_Display_MAT_baseColor.png"
    },
    {
      "mimeType": "image/png",
      "uri": "textures/AU_Display_MAT_emissive.png"
    },
    {
      "mimeType": "image/png",
      "uri": "textures/AU_Display_MAT_normal.png"
    }
  ],
  "buffers": [
    {
      "uri": "scene.bin",
      "byteLength": 381120
    }
  ],
  "materials": [
    {
      "name": "AU_Base_MAT",
      "doubleSided": true,
      "pbrMetallicRoughness": {
        "roughnessFactor": 0.1627450980392157,
        "baseColorTexture": {
          "index": 0
        }
      }
    },
    {
      "name": "AU_Display_MAT",
      "doubleSided": true,
      "pbrMetallicRoughness": {
        "roughnessFactor": 0.2980392156862745,
        "metallicFactor": 0,
        "baseColorTexture": {
          "index": 1
        }
      },
      "emissiveFactor": [
        1,
        1,
        1
      ],
      "emissiveTexture": {
        "index": 2
      },
      "normalTexture": {
        "index": 3
      }
    }
  ],
  "meshes": [
    {
      "name": "AU_Base_AU_Base_MAT_0",
      "primitives": [
        {
          "attributes": {
            "NORMAL": 2,
            "POSITION": 3,
            "TANGENT": 4,
            "TEXCOORD_0": 5
          },
          "mode": 4,
          "material": 0,
          "indices": 0
        }
      ]
    },
    {
      "name": "AU_Display_AU_Display_MAT_0",
      "primitives": [
        {
          "attributes": {
            "NORMAL": 6,
            "POSITION": 7,
            "TANGENT": 8,
            "TEXCOORD_0": 9
          },
          "mode": 4,
          "material": 1,
          "indices": 1
        }
      ]
    }
  ],
  "nodes": [
    {
      "name": "RootNode",
      "children": [
        1
      ]
    },
    {
      "name": "AU_GRP",
      "children": [
        2,
        4
      ]
    },
    {
      "name": "AU_Base",
      "rotation": [
        0.7071068286895752,
        0,
        0,
        0.7071068286895752
      ],
      "scale": [
        2.4707064628601074,
        0.4955352544784546,
        2.4707064628601074
      ],
      "children": [
        3
      ]
    },
    {
      "name": "AU_Base_AU_Base_MAT_0",
      "mesh": 0
    },
    {
      "name": "AU_Display",
      "children": [
        5
      ]
    },
    {
      "name": "AU_Display_AU_Display_MAT_0",
      "mesh": 1
    }
  ],
  "animations": [
    {
      "name": "Take 001",
      "samplers": [
        {
          "input": 10,
          "output": 11,
          "interpolation": "LINEAR"
        },
        {
          "input": 12,
          "output": 13,
          "interpolation": "LINEAR"
        }
      ],
      "channels": [
        {
          "sampler": 0,
          "target": {
            "node": 1,
            "path": "translation"
          }
        },
        {
          "sampler": 1,
          "target": {
            "node": 1,
            "path": "rotation"
          }
        }
      ]
    }
  ],
  "scenes": [
    {
      "name": "Sketchfab_Scene",
      "nodes": [
        0
      ]
    }
  ],
  "scene": 0
}