{
  "asset": {
    "generator": "glTF-Transform v4.1.2",
    "version": "2.0",
    "extras": {
      "author": "knight_of_the_flame (https://sketchfab.com/knight_of_the_flame)",
      "license": "CC-BY-4.0 (http://creativecommons.org/licenses/by/4.0/)",
      "source": "https://sketchfab.com/3d-models/strength-up-9b2c543b66914721b772ba8dbf8455da",
      "title": "Strength Up"
    }
  },
  "accessors": [
    {
      "type": "SCALAR",
      "componentType": 5123,
      "count": 12096,
      "bufferView": 0,
      "byteOffset": 0
    },
    {
      "type": "SCALAR",
      "componentType": 5123,
      "count": 336,
      "bufferView": 0,
      "byteOffset": 24192
    },
    {
      "type": "VEC3",
      "componentType": 5126,
      "count": 2264,
      "bufferView": 1,
      "byteOffset": 0
    },
    {
      "type": "VEC3",
      "componentType": 5126,
      "count": 2264,
      "max": [
        1.70650053024292,
        1.9421346187591553,
        0.23372526466846466
      ],
      "min": [
        -1.70650053024292,
        -1.9421346187591553,
        -0.23372526466846466
      ],
      "bufferView": 1,
      "byteOffset": 12
    },
    {
      "type": "VEC4",
      "componentType": 5126,
      "count": 2264,
      "bufferView": 1,
      "byteOffset": 24
    },
    {
      "type": "VEC2",
      "componentType": 5126,
      "count": 2264,
      "bufferView": 1,
      "byteOffset": 40
    },
    {
      "type": "VEC3",
      "componentType": 5126,
      "count": 192,
      "bufferView": 2,
      "byteOffset": 0
    },
    {
      "type": "VEC3",
      "componentType": 5126,
      "count": 192,
      "max": [
        0.49999988079071045,
        0.49999988079071045,
        0.5
      ],
      "min": [
        -0.49999988079071045,
        -0.49999988079071045,
        -0.5
      ],
      "bufferView": 2,
      "byteOffset": 12
    },
    {
      "type": "VEC4",
      "componentType": 5126,
      "count": 192,
      "bufferView": 2,
      "byteOffset": 24
    },
    {
      "type": "VEC2",
      "componentType": 5126,
      "count": 192,
      "bufferView": 2,
      "byteOffset": 40
    },
    {
      "type": "SCALAR",
      "componentType": 5126,
      "count": 121,
      "max": [
        3.9583332538604736
      ],
      "min": [
        0.0416666679084301
      ],
      "bufferView": 3,
      "byteOffset": 0
    },
    {
      "type": "VEC3",
      "componentType": 5126,
      "count": 121,
      "bufferView": 3,
      "byteOffset": 484
    },
    {
      "type": "SCALAR",
      "componentType": 5126,
      "count": 4,
      "max": [
        3.9583332538604736
      ],
      "min": [
        0.0416666679084301
      ],
      "bufferView": 3,
      "byteOffset": 1936
    },
    {
      "type": "VEC4",
      "componentType": 5126,
      "count": 4,
      "bufferView": 3,
      "byteOffset": 1952
    }
  ],
  "bufferViews": [
    {
      "buffer": 0,
      "byteOffset": 0,
      "byteLength": 24864,
      "target": 34963
    },
    {
      "buffer": 0,
      "byteOffset": 24864,
      "byteLength": 108672,
      "byteStride": 48,
      "target": 34962
    },
    {
      "buffer": 0,
      "byteOffset": 133536,
      "byteLength": 9216,
      "byteStride": 48,
      "target": 34962
    },
    {
      "buffer": 0,
      "byteOffset": 142752,
      "byteLength": 2016
    }
  ],
  "samplers": [
    {
      "magFilter": 9729,
      "minFilter": 9987,
      "wrapS": 10497,
      "wrapT": 10497
    }
  ],
  "textures": [
    {
      "source": 0,
      "sampler": 0
    },
    {
      "source": 1,
      "sampler": 0
    },
    {
      "source": 2,
      "sampler": 0
    },
    {
      "source": 3,
      "sampler": 0
    }
  ],
  "images": [
    {
      "mimeType": "image/png",
      "uri": "textures/SU_Display_MAT_baseColor.png"
    },
    {
      "mimeType": "image/png",
      "uri": "textures/SU_Display_MAT_emissive.png"
    },
    {
      "mimeType": "image/png",
      "uri": "textures/SU_Display_MAT_normal.png"
    },
    {
      "mimeType": "image/png",
      "uri": "textures/SU_Base_MAT_normal.png"
    }
  ],
  "buffers": [
    {
      "uri": "scene.bin",
      "byteLength": 144768
    }
  ],
  "materials": [
    {
      "name": "SU_Display_MAT",
      "doubleSided": true,
      "pbrMetallicRoughness": {
        "roughnessFactor": 0.2980392156862745,
        "metallicFactor": 0,
        "baseColorTexture": {
          "index": 0
        }
      },
      "emissiveFactor": [
        1,
        1,
        1
      ],
      "emissiveTexture": {
        "index": 1
      },
      "normalTexture": {
        "index": 2
      }
    },
    {
      "name": "SU_Base_MAT",
      "doubleSided": true,
      "pbrMetallicRoughness": {
        "baseColorFactor": [
          0.5028864580233624,
          0.5028864580233624,
          0.5028864580233624,
          1
        ],
        "roughnessFactor": 0.2980392156862745
      },
      "normalTexture": {
        "index": 3
      }
    }
  ],
  "meshes": [
    {
      "name": "SU_Display_SU_Display_MAT_0",
      "primitives": [
        {
          "attributes": {
            "NORMAL": 2,
            "POSITION": 3,
            "TANGENT": 4,
            "TEXCOORD_0": 5
          },
          "mode": 4,
          "material": 0,
          "indices": 0
        }
      ]
    },
    {
      "name": "SU_Base_SU_Base_MAT_0",
      "primitives": [
        {
          "attributes": {
            "NORMAL": 6,
            "POSITION": 7,
            "TANGENT": 8,
            "TEXCOORD_0": 9
          },
          "mode": 4,
          "material": 1,
          "indices": 1
        }
      ]
    }
  ],
  "nodes": [
    {
      "name": "RootNode",
      "scale": [
        0.5868650078773499,
        0.5868650078773499,
        0.5868650078773499
      ],
      "children": [
        1
      ]
    },
    {
      "name": "Strength_Up_GRP",
      "children": [
        2,
        4
      ]
    },
    {
      "name": "SU_Display",
      "scale": [
        1.003201961517334,
        1.003201961517334,
        1.003201961517334
      ],
      "children": [
        3
      ]
    },
    {
      "name": "SU_Display_SU_Display_MAT_0",
      "mesh": 0
    },
    {
      "name": "SU_Base",
      "scale": [
        3.7232744693756104,
        4.237384796142578,
        0.6656980514526367
      ],
      "children": [
        5
      ]
    },
    {
      "name": "SU_Base_SU_Base_MAT_0",
      "mesh": 1
    }
  ],
  "animations": [
    {
      "name": "Movement",
      "samplers": [
        {
          "input": 10,
          "output": 11,
          "interpolation": "LINEAR"
        },
        {
          "input": 12,
          "output": 13,
          "interpolation": "LINEAR"
        }
      ],
      "channels": [
        {
          "sampler": 0,
          "target": {
            "node": 1,
            "path": "translation"
          }
        },
        {
          "sampler": 1,
          "target": {
            "node": 1,
            "path": "rotation"
          }
        }
      ]
    }
  ],
  "scenes": [
    {
      "name": "Sketchfab_Scene",
      "nodes": [
        0
      ]
    }
  ],
  "scene": 0
}