{
  "accessors": [
    {
      "bufferView": 2,
      "componentType": 5126,
      "count": 20482,
      "max": [
        98.96206665039063,
        48.121971130371094,
        12.396149635314941
      ],
      "min": [
        92.27828979492188,
        41.438209533691406,
        0.003719999920576811
      ],
      "type": "VEC3"
    },
    {
      "bufferView": 2,
      "byteOffset": 245784,
      "componentType": 5126,
      "count": 20482,
      "max": [
        1.0,
        1.0,
        1.0
      ],
      "min": [
        -1.0,
        -1.0,
        -0.9999998807907104
      ],
      "type": "VEC3"
    },
    {
      "bufferView": 1,
      "componentType": 5126,
      "count": 20482,
      "max": [
        0.9883800148963928,
        0.9861099720001221
      ],
      "min": [
        0.004029999952763319,
        0.004170000087469816
      ],
      "type": "VEC2"
    },
    {
      "bufferView": 0,
      "componentType": 5125,
      "count": 119712,
      "type": "SCALAR"
    },
    {
      "bufferView": 2,
      "byteOffset": 491568,
      "componentType": 5126,
      "count": 8415,
      "max": [
        96.61946868896484,
        46.65169143676758,
        12.166159629821777
      ],
      "min": [
        94.54911804199219,
        42.33802032470703,
        12.004110336303711
      ],
      "type": "VEC3"
    },
    {
      "bufferView": 2,
      "byteOffset": 592548,
      "componentType": 5126,
      "count": 8415,
      "max": [
        0.999997615814209,
        1.0,
        1.0
      ],
      "min": [
        -0.9999984502792358,
        -1.0,
        -1.0
      ],
      "type": "VEC3"
    },
    {
      "bufferView": 1,
      "byteOffset": 163856,
      "componentType": 5126,
      "count": 8415,
      "max": [
        0.9764299988746643,
        0.9850299954414368
      ],
      "min": [
        0.03578000143170357,
        0.02548000030219555
      ],
      "type": "VEC2"
    },
    {
      "bufferView": 0,
      "byteOffset": 478848,
      "componentType": 5125,
      "count": 48816,
      "type": "SCALAR"
    }
  ],
  "asset": {
    "extras": {
      "author": "Mohammad11qwe (https://sketchfab.com/Mohammad11qwe)",
      "license": "CC-BY-4.0 (http://creativecommons.org/licenses/by/4.0/)",
      "source": "https://sketchfab.com/3d-models/cold-energy-drink-a7c77ba7ff844fd78d3a429865181b9e",
      "title": "Cold energy drink"
    },
    "generator": "Sketchfab-16.29.0",
    "version": "2.0"
  },
  "bufferViews": [
    {
      "buffer": 0,
      "byteLength": 674112,
      "name": "floatBufferViews",
      "target": 34963
    },
    {
      "buffer": 0,
      "byteLength": 231176,
      "byteOffset": 674112,
      "byteStride": 8,
      "name": "floatBufferViews",
      "target": 34962
    },
    {
      "buffer": 0,
      "byteLength": 693528,
      "byteOffset": 905288,
      "byteStride": 12,
      "name": "floatBufferViews",
      "target": 34962
    }
  ],
  "buffers": [
    {
      "byteLength": 1598816,
      "uri": "scene.bin"
    }
  ],
  "extensionsUsed": [
    "KHR_materials_clearcoat",
    "KHR_materials_specular"
  ],
  "images": [
    {
      "uri": "textures/hard_plastic_material11_Layer_Stack_baseColor.png"
    },
    {
      "uri": "textures/hard_plastic_material11_Layer_Stack_clearcoat.png"
    },
    {
      "uri": "textures/metal_sandblasted_material_baseColor.png"
    }
  ],
  "materials": [
    {
      "doubleSided": true,
      "extensions": {
        "KHR_materials_clearcoat": {
          "clearcoatFactor": 1.0,
          "clearcoatRoughnessFactor": 0.0,
          "clearcoatTexture": {
            "index": 1
          }
        },
        "KHR_materials_specular": {
          "specularColorFactor": [
            1.0,
            1.0,
            1.0
          ],
          "specularFactor": 1.0
        }
      },
      "name": "hard_plastic_material11_Layer_Stack",
      "pbrMetallicRoughness": {
        "baseColorTexture": {
          "index": 0
        },
        "metallicFactor": 0.6262876229718033,
        "roughnessFactor": 0.6
      }
    },
    {
      "doubleSided": true,
      "extensions": {
        "KHR_materials_clearcoat": {
          "clearcoatFactor": 1.0,
          "clearcoatRoughnessFactor": 0.04
        }
      },
      "name": "metal_sandblasted_material",
      "pbrMetallicRoughness": {
        "baseColorTexture": {
          "index": 2
        },
        "metallicFactor": 0.0,
        "roughnessFactor": 0.6
      }
    }
  ],
  "meshes": [
    {
      "name": "Object_0",
      "primitives": [
        {
          "attributes": {
            "NORMAL": 1,
            "POSITION": 0,
            "TEXCOORD_0": 2
          },
          "indices": 3,
          "material": 0,
          "mode": 4
        }
      ]
    },
    {
      "name": "Object_1",
      "primitives": [
        {
          "attributes": {
            "NORMAL": 5,
            "POSITION": 4,
            "TEXCOORD_0": 6
          },
          "indices": 7,
          "material": 1,
          "mode": 4
        }
      ]
    }
  ],
  "nodes": [
    {
      "children": [
        1
      ],
      "matrix": [
        1.0,
        0.0,
        0.0,
        0.0,
        0.0,
        2.220446049250313e-16,
        -1.0,
        0.0,
        0.0,
        1.0,
        2.220446049250313e-16,
        0.0,
        0.0,
        0.0,
        0.0,
        1.0
      ],
      "name": "Sketchfab_model"
    },
    {
      "children": [
        2,
        3
      ],
      "name": "uuuuuuuuuuuuuuuuuuuuuuuuuuuuuuu.obj.cleaner.materialmerger.gles"
    },
    {
      "mesh": 0,
      "name": "Object_2"
    },
    {
      "mesh": 1,
      "name": "Object_3"
    }
  ],
  "samplers": [
    {
      "magFilter": 9729,
      "minFilter": 9987,
      "wrapS": 10497,
      "wrapT": 10497
    },
    {
      "magFilter": 9728,
      "minFilter": 9986,
      "wrapS": 33648,
      "wrapT": 33071
    }
  ],
  "scene": 0,
  "scenes": [
    {
      "name": "Sketchfab_Scene",
      "nodes": [
        0
      ]
    }
  ],
  "textures": [
    {
      "sampler": 0,
      "source": 0
    },
    {
      "sampler": 1,
      "source": 1
    },
    {
      "sampler": 0,
      "source": 2
    }
  ]
}
