{
  "accessors": [
    {
      "bufferView": 2,
      "componentType": 5126,
      "count": 2264,
      "max": [
        1.70650053024292,
        1.9421346187591553,
        0.23372526466846466
      ],
      "min": [
        -1.70650053024292,
        -1.9421346187591553,
        -0.23372526466846466
      ],
      "type": "VEC3"
    },
    {
      "bufferView": 2,
      "byteOffset": 27168,
      "componentType": 5126,
      "count": 2264,
      "max": [
        1.0,
        1.0,
        1.0
      ],
      "min": [
        -1.0,
        -1.0,
        -1.0
      ],
      "type": "VEC3"
    },
    {
      "bufferView": 3,
      "componentType": 5126,
      "count": 2264,
      "max": [
        1.0,
        0.9916688203811646,
        1.0,
        1.0
      ],
      "min": [
        -0.8288573026657104,
        -0.9768973588943481,
        -1.0,
        1.0
      ],
      "type": "VEC4"
    },
    {
      "bufferView": 1,
      "componentType": 5126,
      "count": 2264,
      "max": [
        0.9236026406288147,
        0.9980080127716064
      ],
      "min": [
        0.0018435186939314008,
        0.00199203216470778
      ],
      "type": "VEC2"
    },
    {
      "bufferView": 0,
      "componentType": 5125,
      "count": 12096,
      "type": "SCALAR"
    },
    {
      "bufferView": 2,
      "byteOffset": 54336,
      "componentType": 5126,
      "count": 192,
      "max": [
        0.49999988079071045,
        0.49999988079071045,
        0.5
      ],
      "min": [
        -0.49999988079071045,
        -0.49999988079071045,
        -0.5
      ],
      "type": "VEC3"
    },
    {
      "bufferView": 2,
      "byteOffset": 56640,
      "componentType": 5126,
      "count": 192,
      "max": [
        1.0,
        1.0,
        1.0
      ],
      "min": [
        -1.0,
        -1.0,
        -1.0
      ],
      "type": "VEC3"
    },
    {
      "bufferView": 3,
      "byteOffset": 36224,
      "componentType": 5126,
      "count": 192,
      "max": [
        1.0,
        1.0,
        1.0,
        1.0
      ],
      "min": [
        -0.7071067094802856,
        -0.2557404339313507,
        -1.0,
        1.0
      ],
      "type": "VEC4"
    },
    {
      "bufferView": 1,
      "byteOffset": 18112,
      "componentType": 5126,
      "count": 192,
      "max": [
        0.9302785992622375,
        0.9980080723762512
      ],
      "min": [
        0.0018568296218290925,
        0.001992015400901437
      ],
      "type": "VEC2"
    },
    {
      "bufferView": 0,
      "byteOffset": 48384,
      "componentType": 5125,
      "count": 336,
      "type": "SCALAR"
    },
    {
      "bufferView": 4,
      "componentType": 5126,
      "count": 124,
      "max": [
        3.9583332538604736
      ],
      "min": [
        0.0416666679084301
      ],
      "type": "SCALAR"
    },
    {
      "bufferView": 5,
      "componentType": 5126,
      "count": 124,
      "max": [
        0.0,
        2.0,
        0.0
      ],
      "min": [
        0.0,
        0.0,
        0.0
      ],
      "type": "VEC3"
    },
    {
      "bufferView": 4,
      "byteOffset": 496,
      "componentType": 5126,
      "count": 124,
      "max": [
        3.9583332538604736
      ],
      "min": [
        0.0416666679084301
      ],
      "type": "SCALAR"
    },
    {
      "bufferView": 6,
      "componentType": 5126,
      "count": 124,
      "max": [
        8.318876011106994e-17,
        1.0,
        8.318876011106994e-17,
        1.0
      ],
      "min": [
        -8.659560603426554e-17,
        -0.862734317779541,
        -8.659560603426554e-17,
        -0.4829002320766449
      ],
      "type": "VEC4"
    }
  ],
  "animations": [
    {
      "channels": [
        {
          "sampler": 0,
          "target": {
            "node": 4,
            "path": "translation"
          }
        },
        {
          "sampler": 1,
          "target": {
            "node": 4,
            "path": "rotation"
          }
        }
      ],
      "name": "Movement",
      "samplers": [
        {
          "input": 10,
          "interpolation": "LINEAR",
          "output": 11
        },
        {
          "input": 12,
          "interpolation": "LINEAR",
          "output": 13
        }
      ]
    }
  ],
  "asset": {
    "extras": {
      "author": "knight_of_the_flame (https://sketchfab.com/knight_of_the_flame)",
      "license": "CC-BY-4.0 (http://creativecommons.org/licenses/by/4.0/)",
      "source": "https://sketchfab.com/3d-models/strength-up-9b2c543b66914721b772ba8dbf8455da",
      "title": "Strength Up"
    },
    "generator": "Sketchfab-12.65.0",
    "version": "2.0"
  },
  "bufferViews": [
    {
      "buffer": 0,
      "byteLength": 49728,
      "name": "floatBufferViews",
      "target": 34963
    },
    {
      "buffer": 0,
      "byteLength": 19648,
      "byteOffset": 49728,
      "byteStride": 8,
      "name": "floatBufferViews",
      "target": 34962
    },
    {
      "buffer": 0,
      "byteLength": 58944,
      "byteOffset": 69376,
      "byteStride": 12,
      "name": "floatBufferViews",
      "target": 34962
    },
    {
      "buffer": 0,
      "byteLength": 39296,
      "byteOffset": 128320,
      "byteStride": 16,
      "name": "floatBufferViews",
      "target": 34962
    },
    {
      "buffer": 0,
      "byteLength": 992,
      "byteOffset": 167616,
      "name": "floatBufferViews"
    },
    {
      "buffer": 0,
      "byteLength": 1488,
      "byteOffset": 168608,
      "byteStride": 12,
      "name": "floatBufferViews"
    },
    {
      "buffer": 0,
      "byteLength": 1984,
      "byteOffset": 170096,
      "byteStride": 16,
      "name": "floatBufferViews"
    }
  ],
  "buffers": [
    {
      "byteLength": 172080,
      "uri": "scene.bin"
    }
  ],
  "images": [
    {
      "uri": "textures/SU_Display_MAT_baseColor.png"
    },
    {
      "uri": "textures/SU_Display_MAT_metallicRoughness.png"
    },
    {
      "uri": "textures/SU_Display_MAT_emissive.png"
    },
    {
      "uri": "textures/SU_Display_MAT_normal.png"
    },
    {
      "uri": "textures/SU_Base_MAT_baseColor.png"
    },
    {
      "uri": "textures/SU_Base_MAT_metallicRoughness.png"
    },
    {
      "uri": "textures/SU_Base_MAT_normal.png"
    }
  ],
  "materials": [
    {
      "doubleSided": true,
      "emissiveFactor": [
        1.0,
        1.0,
        1.0
      ],
      "emissiveTexture": {
        "index": 2
      },
      "name": "SU_Display_MAT",
      "normalTexture": {
        "index": 3
      },
      "occlusionTexture": {
        "index": 1
      },
      "pbrMetallicRoughness": {
        "baseColorTexture": {
          "index": 0
        },
        "metallicRoughnessTexture": {
          "index": 1
        }
      }
    },
    {
      "doubleSided": true,
      "name": "SU_Base_MAT",
      "normalTexture": {
        "index": 6
      },
      "occlusionTexture": {
        "index": 5
      },
      "pbrMetallicRoughness": {
        "baseColorTexture": {
          "index": 4
        },
        "metallicRoughnessTexture": {
          "index": 5
        }
      }
    }
  ],
  "meshes": [
    {
      "name": "SU_Display_SU_Display_MAT_0",
      "primitives": [
        {
          "attributes": {
            "NORMAL": 1,
            "POSITION": 0,
            "TANGENT": 2,
            "TEXCOORD_0": 3
          },
          "indices": 4,
          "material": 0,
          "mode": 4
        }
      ]
    },
    {
      "name": "SU_Base_SU_Base_MAT_0",
      "primitives": [
        {
          "attributes": {
            "NORMAL": 6,
            "POSITION": 5,
            "TANGENT": 7,
            "TEXCOORD_0": 8
          },
          "indices": 9,
          "material": 1,
          "mode": 4
        }
      ]
    }
  ],
  "nodes": [
    {
      "children": [
        1
      ],
      "matrix": [
        0.5868650078773499,
        0.0,
        0.0,
        0.0,
        0.0,
        3.593511923946831e-17,
        -0.5868650078773499,
        0.0,
        0.0,
        0.5868650078773499,
        3.593511923946831e-17,
        0.0,
        0.0,
        5.289724578700294e-38,
        -2.3822801641527197e-22,
        1.0
      ],
      "name": "Sketchfab_model"
    },
    {
      "children": [
        2
      ],
      "matrix": [
        1.0,
        0.0,
        0.0,
        0.0,
        0.0,
        0.0,
        1.0,
        0.0,
        0.0,
        -1.0,
        0.0,
        0.0,
        0.0,
        0.0,
        0.0,
        1.0
      ],
      "name": "a356c818ac6c4f27a466b313f3f6637e.fbx"
    },
    {
      "children": [
        3
      ],
      "name": "Object_2"
    },
    {
      "children": [
        4
      ],
      "name": "RootNode"
    },
    {
      "children": [
        5,
        7
      ],
      "name": "Strength_Up_GRP"
    },
    {
      "children": [
        6
      ],
      "name": "SU_Display",
      "scale": [
        1.003201961517334,
        1.003201961517334,
        1.003201961517334
      ]
    },
    {
      "mesh": 0,
      "name": "SU_Display_SU_Display_MAT_0"
    },
    {
      "children": [
        8
      ],
      "name": "SU_Base",
      "scale": [
        3.7232744693756104,
        4.237384796142578,
        0.6656980514526367
      ]
    },
    {
      "mesh": 1,
      "name": "SU_Base_SU_Base_MAT_0"
    }
  ],
  "samplers": [
    {
      "magFilter": 9729,
      "minFilter": 9987,
      "wrapS": 10497,
      "wrapT": 10497
    }
  ],
  "scene": 0,
  "scenes": [
    {
      "name": "Sketchfab_Scene",
      "nodes": [
        0
      ]
    }
  ],
  "textures": [
    {
      "sampler": 0,
      "source": 0
    },
    {
      "sampler": 0,
      "source": 1
    },
    {
      "sampler": 0,
      "source": 2
    },
    {
      "sampler": 0,
      "source": 3
    },
    {
      "sampler": 0,
      "source": 4
    },
    {
      "sampler": 0,
      "source": 5
    },
    {
      "sampler": 0,
      "source": 6
    }
  ]
}
