{"asset":{"version":"2.0","generator":"Blockbench 4.11.2 glTF exporter"},"scenes":[{"nodes":[5],"name":"blockbench_export"}],"scene":0,"nodes":[{"rotation":[-0.6532814824381881,0.2705980500730985,-0.2705980500730985,0.6532814824381884],"translation":[-0.03125,0.03125,-0.125],"name":"pyramid","mesh":0},{"rotation":[0,0,0.7071067811865475,0.7071067811865476],"translation":[-0.03125,0.03125,0.9375],"name":"plane","mesh":1},{"name":"cube","mesh":2},{"rotation":[0,0,-1,6.123233995736766e-17],"translation":[-0.03125,0.03125,0.9375],"name":"plane","mesh":3},{"rotation":[0,-1,0,6.123233995736766e-17],"translation":[0,0,0.4375],"name":"root","children":[0,1,2,3]},{"children":[4]}],"bufferViews":[{"buffer":0,"byteOffset":0,"byteLength":192,"target":34962,"byteStride":12},{"buffer":0,"byteOffset":192,"byteLength":192,"target":34962,"byteStride":12},{"buffer":0,"byteOffset":384,"byteLength":128,"target":34962,"byteStride":8},{"buffer":0,"byteOffset":512,"byteLength":36,"target":34963},{"buffer":0,"byteOffset":548,"byteLength":48,"target":34962,"byteStride":12},{"buffer":0,"byteOffset":596,"byteLength":48,"target":34962,"byteStride":12},{"buffer":0,"byteOffset":644,"byteLength":32,"target":34962,"byteStride":8},{"buffer":0,"byteOffset":676,"byteLength":12,"target":34963},{"buffer":0,"byteOffset":688,"byteLength":288,"target":34962,"byteStride":12},{"buffer":0,"byteOffset":976,"byteLength":288,"target":34962,"byteStride":12},{"buffer":0,"byteOffset":1264,"byteLength":192,"target":34962,"byteStride":8},{"buffer":0,"byteOffset":1456,"byteLength":72,"target":34963},{"buffer":0,"byteOffset":1528,"byteLength":48,"target":34962,"byteStride":12},{"buffer":0,"byteOffset":1576,"byteLength":48,"target":34962,"byteStride":12},{"buffer":0,"byteOffset":1624,"byteLength":32,"target":34962,"byteStride":8},{"buffer":0,"byteOffset":1656,"byteLength":12,"target":34963}],"buffers":[{"byteLength":1668,"uri":"data:application/octet-stream;base64,"}],"accessors":[{"bufferView":0,"componentType":5126,"count":16,"max":[0.09375,0.1875,0.09375],"min":[-0.09375,-0.0625,-0.09375],"type":"VEC3"},{"bufferView":1,"componentType":5126,"count":16,"max":[0.936329185962677,0.3511234521865845,0.936329185962677],"min":[-0.936329185962677,-1,-0.936329185962677],"type":"VEC3"},{"bufferView":2,"componentType":5126,"count":16,"max":[0.46875,0.5477403402328491],"min":[0.12764716148376465,0.21875],"type":"VEC2"},{"bufferView":3,"componentType":5123,"count":18,"max":[15],"min":[0],"type":"SCALAR"},{"bufferView":4,"componentType":5126,"count":4,"max":[0.1875,0,0.1875],"min":[-0.1875,0,-0.1875],"type":"VEC3"},{"bufferView":5,"componentType":5126,"count":4,"max":[0,1,0],"min":[0,1,0],"type":"VEC3"},{"bufferView":6,"componentType":5126,"count":4,"max":[0.125,0.125],"min":[0,0],"type":"VEC2"},{"bufferView":7,"componentType":5123,"count":6,"max":[3],"min":[0],"type":"SCALAR"},{"bufferView":8,"componentType":5126,"count":24,"max":[0,0.0625,0.9375],"min":[-0.0625,0,-0.0625],"type":"VEC3"},{"bufferView":9,"componentType":5126,"count":24,"max":[1,1,1],"min":[-1,-1,-1],"type":"VEC3"},{"bufferView":10,"componentType":5126,"count":24,"max":[0.65625,0.71875],"min":[0,0],"type":"VEC2"},{"bufferView":11,"componentType":5123,"count":36,"max":[23],"min":[0],"type":"SCALAR"},{"bufferView":12,"componentType":5126,"count":4,"max":[0.1875,0,0.1875],"min":[-0.1875,0,-0.1875],"type":"VEC3"},{"bufferView":13,"componentType":5126,"count":4,"max":[0,1,0],"min":[0,1,0],"type":"VEC3"},{"bufferView":14,"componentType":5126,"count":4,"max":[0.125,0.125],"min":[0,0],"type":"VEC2"},{"bufferView":15,"componentType":5123,"count":6,"max":[3],"min":[0],"type":"SCALAR"}],"materials":[{"pbrMetallicRoughness":{"metallicFactor":0,"roughnessFactor":1,"baseColorTexture":{"index":0}},"alphaMode":"MASK","alphaCutoff":0.05,"doubleSided":true}],"textures":[{"sampler":0,"source":0,"name":"arrow_texture.png"}],"samplers":[{"magFilter":9728,"minFilter":9728,"wrapS":33071,"wrapT":33071}],"images":[{"mimeType":"image/png","uri":"data:image/png;base64,"}],"meshes":[{"primitives":[{"mode":4,"attributes":{"POSITION":0,"NORMAL":1,"TEXCOORD_0":2},"indices":3,"material":0}]},{"primitives":[{"mode":4,"attributes":{"POSITION":4,"NORMAL":5,"TEXCOORD_0":6},"indices":7,"material":0}]},{"primitives":[{"mode":4,"attributes":{"POSITION":8,"NORMAL":9,"TEXCOORD_0":10},"indices":11,"material":0}]},{"primitives":[{"mode":4,"attributes":{"POSITION":12,"NORMAL":13,"TEXCOORD_0":14},"indices":15,"material":0}]}]}