{"asset":{"version":"2.0","generator":"Blockbench 4.11.2 glTF exporter"},"scenes":[{"nodes":[4],"name":"blockbench_export"}],"scene":0,"nodes":[{"translation":[1.1564823173178716e-17,-2.5057116875220547e-17,-0.010211736115570559],"name":"sphere","mesh":0},{"translation":[1.1564823173178716e-17,-2.5057116875220547e-17,-0.010211736115570559],"name":"sphere","mesh":1},{"translation":[1.1564823173178716e-17,-2.5057116875220547e-17,-0.010211736115570559],"name":"sphere","mesh":2},{"rotation":[0,-1,0,6.123233995736766e-17],"translation":[-4.3264051284285075e-17,2.5057116875220547e-17,-0.010211736115570517],"name":"root","children":[0,1,2]},{"children":[3]}],"bufferViews":[{"buffer":0,"byteOffset":0,"byteLength":600,"target":34962,"byteStride":12},{"buffer":0,"byteOffset":600,"byteLength":600,"target":34962,"byteStride":12},{"buffer":0,"byteOffset":1200,"byteLength":400,"target":34962,"byteStride":8},{"buffer":0,"byteOffset":1600,"byteLength":120,"target":34963},{"buffer":0,"byteOffset":1720,"byteLength":600,"target":34962,"byteStride":12},{"buffer":0,"byteOffset":2320,"byteLength":600,"target":34962,"byteStride":12},{"buffer":0,"byteOffset":2920,"byteLength":400,"target":34962,"byteStride":8},{"buffer":0,"byteOffset":3320,"byteLength":120,"target":34963},{"buffer":0,"byteOffset":3440,"byteLength":600,"target":34962,"byteStride":12},{"buffer":0,"byteOffset":4040,"byteLength":600,"target":34962,"byteStride":12},{"buffer":0,"byteOffset":4640,"byteLength":400,"target":34962,"byteStride":8},{"buffer":0,"byteOffset":5040,"byteLength":120,"target":34963},{"buffer":0,"byteOffset":5160,"byteLength":16},{"buffer":0,"byteOffset":5176,"byteLength":64},{"buffer":0,"byteOffset":5240,"byteLength":16},{"buffer":0,"byteOffset":5256,"byteLength":48}],"buffers":[{"byteLength":5304,"uri":"data:application/octet-stream;base64,"}],"accessors":[{"bufferView":0,"componentType":5126,"count":50,"max":[0.125,0.15625,0.11541683226823807],"min":[-0.125,-0.15625,-0.13458316028118134],"type":"VEC3"},{"bufferView":1,"componentType":5126,"count":50,"max":[0.955422580242157,0.8197048306465149,1],"min":[-0.955422580242157,-0.8197048306465149,-0.7946544885635376],"type":"VEC3"},{"bufferView":2,"componentType":5126,"count":50,"max":[0.4543737769126892,0.5047217607498169],"min":[0,0],"type":"VEC2"},{"bufferView":3,"componentType":5123,"count":60,"max":[49],"min":[0],"type":"SCALAR"},{"bufferView":4,"componentType":5126,"count":50,"max":[0.1875,0.21875,0.17791683971881866],"min":[-0.1875,-0.21875,-0.19708316028118134],"type":"VEC3"},{"bufferView":5,"componentType":5126,"count":50,"max":[0.955422580242157,0.8376057744026184,1],"min":[-0.955422580242157,-0.8376057744026184,-0.7946544885635376],"type":"VEC3"},{"bufferView":6,"componentType":5126,"count":50,"max":[0.4543737769126892,0.5047217607498169],"min":[0,0],"type":"VEC2"},{"bufferView":7,"componentType":5123,"count":60,"max":[49],"min":[0],"type":"SCALAR"},{"bufferView":8,"componentType":5126,"count":50,"max":[0.25,0.28125,0.24041683971881866],"min":[-0.25,-0.28125,-0.25958317518234253],"type":"VEC3"},{"bufferView":9,"componentType":5126,"count":50,"max":[0.955422580242157,0.8465134501457214,1],"min":[-0.955422580242157,-0.8465134501457214,-0.7946544885635376],"type":"VEC3"},{"bufferView":10,"componentType":5126,"count":50,"max":[0.4543737769126892,0.5047217607498169],"min":[0,0],"type":"VEC2"},{"bufferView":11,"componentType":5123,"count":60,"max":[49],"min":[0],"type":"SCALAR"},{"bufferView":12,"componentType":5126,"count":4,"max":[1],"min":[0],"type":"SCALAR"},{"bufferView":13,"componentType":5126,"count":4,"max":[0.4330126941204071,-0.25,0,0.4330126941204071],"min":[-0.4330126941204071,-1,-0.75,-0.4330126941204071],"type":"VEC4"},{"bufferView":14,"componentType":5126,"count":4,"max":[0.25],"min":[0],"type":"SCALAR"},{"bufferView":15,"componentType":5126,"count":4,"max":[12.199999809265137,12.199999809265137,12.199999809265137],"min":[0.30000001192092896,0.30000001192092896,0.30000001192092896],"type":"VEC3"}],"materials":[{"pbrMetallicRoughness":{"metallicFactor":0,"roughnessFactor":1,"baseColorTexture":{"index":0}},"alphaMode":"MASK","alphaCutoff":0.05,"doubleSided":true},{"pbrMetallicRoughness":{"metallicFactor":0,"roughnessFactor":1,"baseColorTexture":{"index":1}},"alphaMode":"MASK","alphaCutoff":0.05,"doubleSided":true},{"pbrMetallicRoughness":{"metallicFactor":0,"roughnessFactor":1,"baseColorTexture":{"index":2}},"alphaMode":"MASK","alphaCutoff":0.05,"doubleSided":true}],"textures":[{"sampler":0,"source":0,"name":"energy_orb_transparency_1"},{"sampler":1,"source":1,"name":"energy_orb_transparency_1"},{"sampler":2,"source":2,"name":"energy_orb_transparency_2"}],"samplers":[{"magFilter":9728,"minFilter":9728,"wrapS":33071,"wrapT":33071},{"magFilter":9728,"minFilter":9728,"wrapS":33071,"wrapT":33071},{"magFilter":9728,"minFilter":9728,"wrapS":33071,"wrapT":33071}],"images":[{"mimeType":"image/png","uri":"data:image/png;base64,"},{"mimeType":"image/png","uri":"data:image/png;base64,"},{"mimeType":"image/png","uri":"data:image/png;base64,"}],"meshes":[{"primitives":[{"mode":4,"attributes":{"POSITION":0,"NORMAL":1,"TEXCOORD_0":2},"indices":3,"material":0}]},{"primitives":[{"mode":4,"attributes":{"POSITION":4,"NORMAL":5,"TEXCOORD_0":6},"indices":7,"material":1}]},{"primitives":[{"mode":4,"attributes":{"POSITION":8,"NORMAL":9,"TEXCOORD_0":10},"indices":11,"material":2}]}],"animations":[{"name":"idle","samplers":[{"input":12,"output":13,"interpolation":"LINEAR"}],"channels":[{"sampler":0,"target":{"node":3,"path":"rotation"}}]},{"name":"explode","samplers":[{"input":14,"output":15,"interpolation":"LINEAR"}],"channels":[{"sampler":0,"target":{"node":3,"path":"scale"}}]}]}