{"asset":{"version":"2.0","generator":"Blockbench 4.11.1 glTF exporter"},"scenes":[{"nodes":[18],"name":"blockbench_export"}],"scene":0,"nodes":[{"translation":[0.28125,0.15625,0.125],"name":"cube","mesh":0},{"translation":[0.15625,0.25,0],"name":"cube","mesh":1},{"translation":[0.15625,-0.1875,0],"name":"cube","mesh":2},{"rotation":[-0.5,0.4999999999999999,0.5,0.5000000000000001],"translation":[0.40625,0,0],"name":"cube","mesh":3},{"rotation":[0.7071067811865475,0,0,0.7071067811865476],"translation":[0.15625,0.0625,-0.25],"name":"cube","mesh":4},{"rotation":[0.7071067811865475,0,0,0.7071067811865476],"translation":[0.15625,0.0625,0.25],"name":"cube","mesh":5},{"rotation":[-0.5,0.4999999999999999,0.5,0.5000000000000001],"name":"cube","mesh":6},{"rotation":[0,0,0.7071067811865475,0.7071067811865476],"translation":[0.28125,0.03125,-0.3125],"name":"plane","mesh":7},{"rotation":[0,0,0.7071067811865475,0.7071067811865476],"translation":[0.03125,0.03125,-0.3125],"name":"plane","mesh":8},{"rotation":[0,0,0.7071067811865475,0.7071067811865476],"translation":[0.15625,0.03125,-0.5625],"name":"long_flame","mesh":9},{"rotation":[0,0,0.7071067811865475,0.7071067811865476],"translation":[0.1875,-0.125,0],"name":"flameshorzontal","children":[7,8,9]},{"rotation":[0,0,0.7071067811865475,0.7071067811865476],"translation":[0.28125,0.03125,-0.3125],"name":"plane","mesh":10},{"rotation":[0,0,0.7071067811865475,0.7071067811865476],"translation":[0.03125,0.03125,-0.3125],"name":"plane","mesh":11},{"rotation":[0,0,0.7071067811865475,0.7071067811865476],"translation":[0.15625,0.03125,-0.5625],"name":"long_flame","mesh":12},{"name":"flames","children":[11,12,13]},{"translation":[-0.48125000000000007,-0.06875,-0.4312499999999999],"name":"cube","mesh":13},{"translation":[0.1875,-0.125,0],"name":"Outer_Flames","children":[15]},{"translation":[-0.15625,0.15625,0],"name":"fireball","children":[0,1,2,3,4,5,6,10,14,16]},{"children":[17]}],"bufferViews":[{"buffer":0,"byteOffset":0,"byteLength":288,"target":34962,"byteStride":12},{"buffer":0,"byteOffset":288,"byteLength":288,"target":34962,"byteStride":12},{"buffer":0,"byteOffset":576,"byteLength":192,"target":34962,"byteStride":8},{"buffer":0,"byteOffset":768,"byteLength":72,"target":34963},{"buffer":0,"byteOffset":840,"byteLength":288,"target":34962,"byteStride":12},{"buffer":0,"byteOffset":1128,"byteLength":288,"target":34962,"byteStride":12},{"buffer":0,"byteOffset":1416,"byteLength":192,"target":34962,"byteStride":8},{"buffer":0,"byteOffset":1608,"byteLength":72,"target":34963},{"buffer":0,"byteOffset":1680,"byteLength":288,"target":34962,"byteStride":12},{"buffer":0,"byteOffset":1968,"byteLength":288,"target":34962,"byteStride":12},{"buffer":0,"byteOffset":2256,"byteLength":192,"target":34962,"byteStride":8},{"buffer":0,"byteOffset":2448,"byteLength":72,"target":34963},{"buffer":0,"byteOffset":2520,"byteLength":288,"target":34962,"byteStride":12},{"buffer":0,"byteOffset":2808,"byteLength":288,"target":34962,"byteStride":12},{"buffer":0,"byteOffset":3096,"byteLength":192,"target":34962,"byteStride":8},{"buffer":0,"byteOffset":3288,"byteLength":72,"target":34963},{"buffer":0,"byteOffset":3360,"byteLength":288,"target":34962,"byteStride":12},{"buffer":0,"byteOffset":3648,"byteLength":288,"target":34962,"byteStride":12},{"buffer":0,"byteOffset":3936,"byteLength":192,"target":34962,"byteStride":8},{"buffer":0,"byteOffset":4128,"byteLength":72,"target":34963},{"buffer":0,"byteOffset":4200,"byteLength":288,"target":34962,"byteStride":12},{"buffer":0,"byteOffset":4488,"byteLength":288,"target":34962,"byteStride":12},{"buffer":0,"byteOffset":4776,"byteLength":192,"target":34962,"byteStride":8},{"buffer":0,"byteOffset":4968,"byteLength":72,"target":34963},{"buffer":0,"byteOffset":5040,"byteLength":288,"target":34962,"byteStride":12},{"buffer":0,"byteOffset":5328,"byteLength":288,"target":34962,"byteStride":12},{"buffer":0,"byteOffset":5616,"byteLength":192,"target":34962,"byteStride":8},{"buffer":0,"byteOffset":5808,"byteLength":72,"target":34963},{"buffer":0,"byteOffset":5880,"byteLength":48,"target":34962,"byteStride":12},{"buffer":0,"byteOffset":5928,"byteLength":48,"target":34962,"byteStride":12},{"buffer":0,"byteOffset":5976,"byteLength":32,"target":34962,"byteStride":8},{"buffer":0,"byteOffset":6008,"byteLength":12,"target":34963},{"buffer":0,"byteOffset":6020,"byteLength":48,"target":34962,"byteStride":12},{"buffer":0,"byteOffset":6068,"byteLength":48,"target":34962,"byteStride":12},{"buffer":0,"byteOffset":6116,"byteLength":32,"target":34962,"byteStride":8},{"buffer":0,"byteOffset":6148,"byteLength":12,"target":34963},{"buffer":0,"byteOffset":6160,"byteLength":48,"target":34962,"byteStride":12},{"buffer":0,"byteOffset":6208,"byteLength":48,"target":34962,"byteStride":12},{"buffer":0,"byteOffset":6256,"byteLength":32,"target":34962,"byteStride":8},{"buffer":0,"byteOffset":6288,"byteLength":12,"target":34963},{"buffer":0,"byteOffset":6300,"byteLength":48,"target":34962,"byteStride":12},{"buffer":0,"byteOffset":6348,"byteLength":48,"target":34962,"byteStride":12},{"buffer":0,"byteOffset":6396,"byteLength":32,"target":34962,"byteStride":8},{"buffer":0,"byteOffset":6428,"byteLength":12,"target":34963},{"buffer":0,"byteOffset":6440,"byteLength":48,"target":34962,"byteStride":12},{"buffer":0,"byteOffset":6488,"byteLength":48,"target":34962,"byteStride":12},{"buffer":0,"byteOffset":6536,"byteLength":32,"target":34962,"byteStride":8},{"buffer":0,"byteOffset":6568,"byteLength":12,"target":34963},{"buffer":0,"byteOffset":6580,"byteLength":48,"target":34962,"byteStride":12},{"buffer":0,"byteOffset":6628,"byteLength":48,"target":34962,"byteStride":12},{"buffer":0,"byteOffset":6676,"byteLength":32,"target":34962,"byteStride":8},{"buffer":0,"byteOffset":6708,"byteLength":12,"target":34963},{"buffer":0,"byteOffset":6720,"byteLength":288,"target":34962,"byteStride":12},{"buffer":0,"byteOffset":7008,"byteLength":288,"target":34962,"byteStride":12},{"buffer":0,"byteOffset":7296,"byteLength":192,"target":34962,"byteStride":8},{"buffer":0,"byteOffset":7488,"byteLength":72,"target":34963}],"buffers":[{"byteLength":7560,"uri":"data:application/octet-stream;base64,"}],"accessors":[{"bufferView":0,"componentType":5126,"count":24,"max":[0.0625,0.0625,0.0625],"min":[-0.3125,-0.3125,-0.3125],"type":"VEC3"},{"bufferView":1,"componentType":5126,"count":24,"max":[1,1,1],"min":[-1,-1,-1],"type":"VEC3"},{"bufferView":2,"componentType":5126,"count":24,"max":[0.625,0.625],"min":[0,0],"type":"VEC2"},{"bufferView":3,"componentType":5123,"count":36,"max":[23],"min":[0],"type":"SCALAR"},{"bufferView":4,"componentType":5126,"count":24,"max":[0.125,0,0.125],"min":[-0.125,-0.03125,-0.125],"type":"VEC3"},{"bufferView":5,"componentType":5126,"count":24,"max":[1,1,1],"min":[-1,-1,-1],"type":"VEC3"},{"bufferView":6,"componentType":5126,"count":24,"max":[0.96875,0.84375],"min":[0,0],"type":"VEC2"},{"bufferView":7,"componentType":5123,"count":36,"max":[23],"min":[0],"type":"SCALAR"},{"bufferView":8,"componentType":5126,"count":24,"max":[0.125,0.03125,0.125],"min":[-0.125,0,-0.125],"type":"VEC3"},{"bufferView":9,"componentType":5126,"count":24,"max":[1,1,1],"min":[-1,-1,-1],"type":"VEC3"},{"bufferView":10,"componentType":5126,"count":24,"max":[0.96875,0.875],"min":[0.5,0.40625],"type":"VEC2"},{"bufferView":11,"componentType":5123,"count":36,"max":[23],"min":[0],"type":"SCALAR"},{"bufferView":12,"componentType":5126,"count":24,"max":[0.125,0.0625,0.1875],"min":[-0.125,0.03125,-0.125],"type":"VEC3"},{"bufferView":13,"componentType":5126,"count":24,"max":[1,1,1],"min":[-1,-1,-1],"type":"VEC3"},{"bufferView":14,"componentType":5126,"count":24,"max":[0.96875,0.875],"min":[0.375,0.21875],"type":"VEC2"},{"bufferView":15,"componentType":5123,"count":36,"max":[23],"min":[0],"type":"SCALAR"},{"bufferView":16,"componentType":5126,"count":24,"max":[0.125,0.0625,0.1875],"min":[-0.125,0.03125,-0.125],"type":"VEC3"},{"bufferView":17,"componentType":5126,"count":24,"max":[1,1,1],"min":[-1,-1,-1],"type":"VEC3"},{"bufferView":18,"componentType":5126,"count":24,"max":[0.9375,0.90625],"min":[0,0.21875],"type":"VEC2"},{"bufferView":19,"componentType":5123,"count":36,"max":[23],"min":[0],"type":"SCALAR"},{"bufferView":20,"componentType":5126,"count":24,"max":[0.125,-0.03125,0.1875],"min":[-0.125,-0.0625,-0.125],"type":"VEC3"},{"bufferView":21,"componentType":5126,"count":24,"max":[1,1,1],"min":[-1,-1,-1],"type":"VEC3"},{"bufferView":22,"componentType":5126,"count":24,"max":[0.875,0.90625],"min":[0,0.625],"type":"VEC2"},{"bufferView":23,"componentType":5123,"count":36,"max":[23],"min":[0],"type":"SCALAR"},{"bufferView":24,"componentType":5126,"count":24,"max":[0.09375,0.0625,0.1875],"min":[-0.15625,0.03125,-0.125],"type":"VEC3"},{"bufferView":25,"componentType":5126,"count":24,"max":[1,1,1],"min":[-1,-1,-1],"type":"VEC3"},{"bufferView":26,"componentType":5126,"count":24,"max":[0.9375,0.75],"min":[0.21875,0],"type":"VEC2"},{"bufferView":27,"componentType":5123,"count":36,"max":[23],"min":[0],"type":"SCALAR"},{"bufferView":28,"componentType":5126,"count":4,"max":[0.25,0,0.21875],"min":[-0.25,0,-0.21875],"type":"VEC3"},{"bufferView":29,"componentType":5126,"count":4,"max":[0,1,0],"min":[0,1,0],"type":"VEC3"},{"bufferView":30,"componentType":5126,"count":4,"max":[0.5,0.9375],"min":[0,0.5],"type":"VEC2"},{"bufferView":31,"componentType":5123,"count":6,"max":[3],"min":[0],"type":"SCALAR"},{"bufferView":32,"componentType":5126,"count":4,"max":[0.25,0,0.21875],"min":[-0.25,0,-0.21875],"type":"VEC3"},{"bufferView":33,"componentType":5126,"count":4,"max":[0,1,0],"min":[0,1,0],"type":"VEC3"},{"bufferView":34,"componentType":5126,"count":4,"max":[0.5,0.4375],"min":[0,0],"type":"VEC2"},{"bufferView":35,"componentType":5123,"count":6,"max":[3],"min":[0],"type":"SCALAR"},{"bufferView":36,"componentType":5126,"count":4,"max":[0.25,0,0.46875],"min":[-0.25,0,-0.46875],"type":"VEC3"},{"bufferView":37,"componentType":5126,"count":4,"max":[0,1,0],"min":[0,1,0],"type":"VEC3"},{"bufferView":38,"componentType":5126,"count":4,"max":[0.5,0.9375],"min":[0,0],"type":"VEC2"},{"bufferView":39,"componentType":5123,"count":6,"max":[3],"min":[0],"type":"SCALAR"},{"bufferView":40,"componentType":5126,"count":4,"max":[0.25,0,0.21875],"min":[-0.25,0,-0.21875],"type":"VEC3"},{"bufferView":41,"componentType":5126,"count":4,"max":[0,1,0],"min":[0,1,0],"type":"VEC3"},{"bufferView":42,"componentType":5126,"count":4,"max":[0.5,0.9375],"min":[0,0.5],"type":"VEC2"},{"bufferView":43,"componentType":5123,"count":6,"max":[3],"min":[0],"type":"SCALAR"},{"bufferView":44,"componentType":5126,"count":4,"max":[0.25,0,0.21875],"min":[-0.25,0,-0.21875],"type":"VEC3"},{"bufferView":45,"componentType":5126,"count":4,"max":[0,1,0],"min":[0,1,0],"type":"VEC3"},{"bufferView":46,"componentType":5126,"count":4,"max":[0.5,0.4375],"min":[0,0],"type":"VEC2"},{"bufferView":47,"componentType":5123,"count":6,"max":[3],"min":[0],"type":"SCALAR"},{"bufferView":48,"componentType":5126,"count":4,"max":[0.25,0,0.46875],"min":[-0.25,0,-0.46875],"type":"VEC3"},{"bufferView":49,"componentType":5126,"count":4,"max":[0,1,0],"min":[0,1,0],"type":"VEC3"},{"bufferView":50,"componentType":5126,"count":4,"max":[0.5,0.9375],"min":[0,0],"type":"VEC2"},{"bufferView":51,"componentType":5123,"count":6,"max":[3],"min":[0],"type":"SCALAR"},{"bufferView":52,"componentType":5126,"count":24,"max":[0.6875,0.453125,0.65625],"min":[0.21875,0,-0.0625],"type":"VEC3"},{"bufferView":53,"componentType":5126,"count":24,"max":[1,1,1],"min":[-1,-1,-1],"type":"VEC3"},{"bufferView":54,"componentType":5126,"count":24,"max":[0.75,0.75],"min":[0,0],"type":"VEC2"},{"bufferView":55,"componentType":5123,"count":36,"max":[23],"min":[0],"type":"SCALAR"}],"materials":[{"pbrMetallicRoughness":{"metallicFactor":0,"roughnessFactor":1,"baseColorTexture":{"index":0}},"alphaMode":"MASK","alphaCutoff":0.05,"doubleSided":true},{"pbrMetallicRoughness":{"metallicFactor":0,"roughnessFactor":1,"baseColorTexture":{"index":1}},"alphaMode":"MASK","alphaCutoff":0.05,"doubleSided":true},{"pbrMetallicRoughness":{"metallicFactor":0,"roughnessFactor":1,"baseColorTexture":{"index":2}},"alphaMode":"MASK","alphaCutoff":0.05,"doubleSided":true},{"pbrMetallicRoughness":{"metallicFactor":0,"roughnessFactor":1,"baseColorTexture":{"index":3}},"alphaMode":"MASK","alphaCutoff":0.05,"doubleSided":true}],"textures":[{"sampler":0,"source":0,"name":"fireball_texture"},{"sampler":1,"source":1,"name":"Short_flame_texture"},{"sampler":2,"source":2,"name":"long_flame_texture"},{"sampler":3,"source":3,"name":"outer_flame_texture"}],"samplers":[{"magFilter":9728,"minFilter":9728,"wrapS":33071,"wrapT":33071},{"magFilter":9728,"minFilter":9728,"wrapS":33071,"wrapT":33071},{"magFilter":9728,"minFilter":9728,"wrapS":33071,"wrapT":33071},{"magFilter":9728,"minFilter":9728,"wrapS":33071,"wrapT":33071}],"images":[{"mimeType":"image/png","uri":"data:image/png;base64,"},{"mimeType":"image/png","uri":"data:image/png;base64,"},{"mimeType":"image/png","uri":"data:image/png;base64,"},{"mimeType":"image/png","uri":"data:image/png;base64,"}],"meshes":[{"primitives":[{"mode":4,"attributes":{"POSITION":0,"NORMAL":1,"TEXCOORD_0":2},"indices":3,"material":0}]},{"primitives":[{"mode":4,"attributes":{"POSITION":4,"NORMAL":5,"TEXCOORD_0":6},"indices":7,"material":0}]},{"primitives":[{"mode":4,"attributes":{"POSITION":8,"NORMAL":9,"TEXCOORD_0":10},"indices":11,"material":0}]},{"primitives":[{"mode":4,"attributes":{"POSITION":12,"NORMAL":13,"TEXCOORD_0":14},"indices":15,"material":0}]},{"primitives":[{"mode":4,"attributes":{"POSITION":16,"NORMAL":17,"TEXCOORD_0":18},"indices":19,"material":0}]},{"primitives":[{"mode":4,"attributes":{"POSITION":20,"NORMAL":21,"TEXCOORD_0":22},"indices":23,"material":0}]},{"primitives":[{"mode":4,"attributes":{"POSITION":24,"NORMAL":25,"TEXCOORD_0":26},"indices":27,"material":0}]},{"primitives":[{"mode":4,"attributes":{"POSITION":28,"NORMAL":29,"TEXCOORD_0":30},"indices":31,"material":1}]},{"primitives":[{"mode":4,"attributes":{"POSITION":32,"NORMAL":33,"TEXCOORD_0":34},"indices":35,"material":1}]},{"primitives":[{"mode":4,"attributes":{"POSITION":36,"NORMAL":37,"TEXCOORD_0":38},"indices":39,"material":2}]},{"primitives":[{"mode":4,"attributes":{"POSITION":40,"NORMAL":41,"TEXCOORD_0":42},"indices":43,"material":1}]},{"primitives":[{"mode":4,"attributes":{"POSITION":44,"NORMAL":45,"TEXCOORD_0":46},"indices":47,"material":1}]},{"primitives":[{"mode":4,"attributes":{"POSITION":48,"NORMAL":49,"TEXCOORD_0":50},"indices":51,"material":2}]},{"primitives":[{"mode":4,"attributes":{"POSITION":52,"NORMAL":53,"TEXCOORD_0":54},"indices":55,"material":3}]}]}