{"asset":{"version":"2.0","generator":"Blockbench 4.11.2 glTF exporter"},"scenes":[{"nodes":[9],"name":"blockbench_export"}],"scene":0,"nodes":[{"rotation":[0.7071067811865475,0,0,0.7071067811865476],"translation":[0,0,-0.25],"name":"beveled_cuboid","mesh":0},{"rotation":[0.7071067811865475,0,0,0.7071067811865476],"name":"plane","mesh":1},{"rotation":[0.5,-0.4999999999999999,0.5,0.5000000000000001],"name":"plane","mesh":2},{"rotation":[0.7071067811865475,5.551115123125783e-17,0.7071067811865475,1.6653345369377348e-16],"name":"plane","mesh":3},{"translation":[0,0.1875,0],"name":"bone","children":[0,1,2,3]},{"rotation":[0,0,0.7071067811865475,0.7071067811865476],"name":"plane","mesh":4},{"name":"plane","mesh":5},{"rotation":[-0.7071067811865475,0,0,0.7071067811865476],"translation":[-0.001875,0,0],"name":"plane","mesh":6},{"name":"backup_bullet","children":[5,6,7]},{"children":[4,8]}],"bufferViews":[{"buffer":0,"byteOffset":0,"byteLength":1152,"target":34962,"byteStride":12},{"buffer":0,"byteOffset":1152,"byteLength":1152,"target":34962,"byteStride":12},{"buffer":0,"byteOffset":2304,"byteLength":768,"target":34962,"byteStride":8},{"buffer":0,"byteOffset":3072,"byteLength":264,"target":34963},{"buffer":0,"byteOffset":3336,"byteLength":48,"target":34962,"byteStride":12},{"buffer":0,"byteOffset":3384,"byteLength":48,"target":34962,"byteStride":12},{"buffer":0,"byteOffset":3432,"byteLength":32,"target":34962,"byteStride":8},{"buffer":0,"byteOffset":3464,"byteLength":12,"target":34963},{"buffer":0,"byteOffset":3476,"byteLength":48,"target":34962,"byteStride":12},{"buffer":0,"byteOffset":3524,"byteLength":48,"target":34962,"byteStride":12},{"buffer":0,"byteOffset":3572,"byteLength":32,"target":34962,"byteStride":8},{"buffer":0,"byteOffset":3604,"byteLength":12,"target":34963},{"buffer":0,"byteOffset":3616,"byteLength":48,"target":34962,"byteStride":12},{"buffer":0,"byteOffset":3664,"byteLength":48,"target":34962,"byteStride":12},{"buffer":0,"byteOffset":3712,"byteLength":32,"target":34962,"byteStride":8},{"buffer":0,"byteOffset":3744,"byteLength":12,"target":34963},{"buffer":0,"byteOffset":3756,"byteLength":48,"target":34962,"byteStride":12},{"buffer":0,"byteOffset":3804,"byteLength":48,"target":34962,"byteStride":12},{"buffer":0,"byteOffset":3852,"byteLength":32,"target":34962,"byteStride":8},{"buffer":0,"byteOffset":3884,"byteLength":12,"target":34963},{"buffer":0,"byteOffset":3896,"byteLength":48,"target":34962,"byteStride":12},{"buffer":0,"byteOffset":3944,"byteLength":48,"target":34962,"byteStride":12},{"buffer":0,"byteOffset":3992,"byteLength":32,"target":34962,"byteStride":8},{"buffer":0,"byteOffset":4024,"byteLength":12,"target":34963},{"buffer":0,"byteOffset":4036,"byteLength":48,"target":34962,"byteStride":12},{"buffer":0,"byteOffset":4084,"byteLength":48,"target":34962,"byteStride":12},{"buffer":0,"byteOffset":4132,"byteLength":32,"target":34962,"byteStride":8},{"buffer":0,"byteOffset":4164,"byteLength":12,"target":34963}],"buffers":[{"byteLength":4176,"uri":"data:application/octet-stream;base64,"}],"accessors":[{"bufferView":0,"componentType":5126,"count":96,"max":[0.0625,0.78125,0.0625],"min":[-0.0625,-0.28125,-0.0625],"type":"VEC3"},{"bufferView":1,"componentType":5126,"count":96,"max":[1,1,1],"min":[-1,-1,-1],"type":"VEC3"},{"bufferView":2,"componentType":5126,"count":96,"max":[0.984375,0.109375],"min":[0.015625,0.015625],"type":"VEC2"},{"bufferView":3,"componentType":5123,"count":132,"max":[95],"min":[0],"type":"SCALAR"},{"bufferView":4,"componentType":5126,"count":4,"max":[0.25,0,0.25],"min":[-0.25,0,-0.25],"type":"VEC3"},{"bufferView":5,"componentType":5126,"count":4,"max":[0,1,0],"min":[0,1,0],"type":"VEC3"},{"bufferView":6,"componentType":5126,"count":4,"max":[0.25,1],"min":[0,0.75],"type":"VEC2"},{"bufferView":7,"componentType":5123,"count":6,"max":[3],"min":[0],"type":"SCALAR"},{"bufferView":8,"componentType":5126,"count":4,"max":[0.78125,0,0.28125],"min":[-0.78125,0,-0.28125],"type":"VEC3"},{"bufferView":9,"componentType":5126,"count":4,"max":[0,1,0],"min":[0,1,0],"type":"VEC3"},{"bufferView":10,"componentType":5126,"count":4,"max":[0.5,0.49609375],"min":[0,0.37109375],"type":"VEC2"},{"bufferView":11,"componentType":5123,"count":6,"max":[3],"min":[0],"type":"SCALAR"},{"bufferView":12,"componentType":5126,"count":4,"max":[0.78125,0,0.28125],"min":[-0.78125,0,-0.28125],"type":"VEC3"},{"bufferView":13,"componentType":5126,"count":4,"max":[0,1,0],"min":[0,1,0],"type":"VEC3"},{"bufferView":14,"componentType":5126,"count":4,"max":[0.5,0.49609375],"min":[0,0.37109375],"type":"VEC2"},{"bufferView":15,"componentType":5123,"count":6,"max":[3],"min":[0],"type":"SCALAR"},{"bufferView":16,"componentType":5126,"count":4,"max":[0.125,0,0.375],"min":[-0.125,0,-0.375],"type":"VEC3"},{"bufferView":17,"componentType":5126,"count":4,"max":[0,1,0],"min":[0,1,0],"type":"VEC3"},{"bufferView":18,"componentType":5126,"count":4,"max":[0.3203125,0.9609375],"min":[0,0],"type":"VEC2"},{"bufferView":19,"componentType":5123,"count":6,"max":[3],"min":[0],"type":"SCALAR"},{"bufferView":20,"componentType":5126,"count":4,"max":[0.125,0,0.375],"min":[-0.125,0,-0.375],"type":"VEC3"},{"bufferView":21,"componentType":5126,"count":4,"max":[0,1,0],"min":[0,1,0],"type":"VEC3"},{"bufferView":22,"componentType":5126,"count":4,"max":[0.3203125,0.9609375],"min":[0,0],"type":"VEC2"},{"bufferView":23,"componentType":5123,"count":6,"max":[3],"min":[0],"type":"SCALAR"},{"bufferView":24,"componentType":5126,"count":4,"max":[0.06593749672174454,0,0.06875000149011612],"min":[-0.06593749672174454,0,-0.06875000149011612],"type":"VEC3"},{"bufferView":25,"componentType":5126,"count":4,"max":[0,1,0],"min":[0,1,0],"type":"VEC3"},{"bufferView":26,"componentType":5126,"count":4,"max":[1,0.21875],"min":[0.78125,0],"type":"VEC2"},{"bufferView":27,"componentType":5123,"count":6,"max":[3],"min":[0],"type":"SCALAR"}],"materials":[{"pbrMetallicRoughness":{"metallicFactor":0,"roughnessFactor":1,"baseColorTexture":{"index":0}},"alphaMode":"MASK","alphaCutoff":0.05,"doubleSided":true},{"pbrMetallicRoughness":{"metallicFactor":0,"roughnessFactor":1,"baseColorTexture":{"index":1}},"alphaMode":"MASK","alphaCutoff":0.05,"doubleSided":true}],"textures":[{"sampler":0,"source":0,"name":"texture.png"},{"sampler":1,"source":1,"name":"texture_2.png"}],"samplers":[{"magFilter":9728,"minFilter":9728,"wrapS":33071,"wrapT":33071},{"magFilter":9728,"minFilter":9728,"wrapS":33071,"wrapT":33071}],"images":[{"mimeType":"image/png","uri":"data:image/png;base64,"},{"mimeType":"image/png","uri":"data:image/png;base64,"}],"meshes":[{"primitives":[{"mode":4,"attributes":{"POSITION":0,"NORMAL":1,"TEXCOORD_0":2},"indices":3,"material":0}]},{"primitives":[{"mode":4,"attributes":{"POSITION":4,"NORMAL":5,"TEXCOORD_0":6},"indices":7,"material":0}]},{"primitives":[{"mode":4,"attributes":{"POSITION":8,"NORMAL":9,"TEXCOORD_0":10},"indices":11,"material":0}]},{"primitives":[{"mode":4,"attributes":{"POSITION":12,"NORMAL":13,"TEXCOORD_0":14},"indices":15,"material":0}]},{"primitives":[{"mode":4,"attributes":{"POSITION":16,"NORMAL":17,"TEXCOORD_0":18},"indices":19,"material":1}]},{"primitives":[{"mode":4,"attributes":{"POSITION":20,"NORMAL":21,"TEXCOORD_0":22},"indices":23,"material":1}]},{"primitives":[{"mode":4,"attributes":{"POSITION":24,"NORMAL":25,"TEXCOORD_0":26},"indices":27,"material":1}]}]}